<svg width="18" height="19" viewBox="0 0 18 19" fill="none" xmlns="http://www.w3.org/2000/svg">
<g clip-path="url(#clip0_1_2679)">
<path d="M15 3.57898H3C2.175 3.57898 1.5075 4.23622 1.5075 5.03951L1.5 13.8027C1.5 14.606 2.175 15.2632 3 15.2632H15C15.825 15.2632 16.5 14.606 16.5 13.8027V5.03951C16.5 4.23622 15.825 3.57898 15 3.57898ZM14.7 6.6826L9.3975 9.91036C9.1575 10.0564 8.8425 10.0564 8.6025 9.91036L3.3 6.6826C3.1125 6.56576 3 6.36858 3 6.15681C3 5.66753 3.5475 5.37543 3.975 5.63102L9 8.69082L14.025 5.63102C14.4525 5.37543 15 5.66753 15 6.15681C15 6.36858 14.8875 6.56576 14.7 6.6826Z" fill="#212121"/>
</g>
<defs>
<clipPath id="clip0_1_2679">
<rect width="18" height="17.5263" fill="white" transform="translate(0 0.657898)"/>
</clipPath>
</defs>
</svg>
