<svg width="18" height="18" viewBox="0 0 18 18" fill="none" xmlns="http://www.w3.org/2000/svg">
<path d="M13.996 11.2773L12.1579 11.073C11.7164 11.0237 11.2822 11.1716 10.971 11.4746L9.63945 12.7712C7.59144 11.7565 5.91251 10.1288 4.87041 8.12759L6.20922 6.82401C6.5204 6.52102 6.67237 6.09824 6.62171 5.66841L6.41185 3.89272C6.325 3.18103 5.70988 2.64551 4.97173 2.64551H3.71976C2.902 2.64551 2.22175 3.30787 2.2724 4.10411C2.65595 10.1217 7.59868 14.9274 13.7717 15.3008C14.5894 15.3501 15.2697 14.6878 15.2697 13.8915V12.6725C15.2769 11.9608 14.7269 11.3619 13.996 11.2773Z" fill="#212121"/>
</svg>
